<?xml version="1.0" encoding="utf-8"?>
<!-- Generator: Adobe Illustrator 18.1.1, SVG Export Plug-In . SVG Version: 6.00 Build 0)  -->
<!DOCTYPE svg PUBLIC "-//W3C//DTD SVG 1.1//EN" "http://www.w3.org/Graphics/SVG/1.1/DTD/svg11.dtd">
<svg version="1.1" id="Layer_1" xmlns="http://www.w3.org/2000/svg" xmlns:xlink="http://www.w3.org/1999/xlink" x="0px" y="0px"
	 width="822px" height="182px" viewBox="0 0 822 182" enable-background="new 0 0 822 182" xml:space="preserve">
<path fill-rule="evenodd" clip-rule="evenodd" d="M699.1,172.9c0,4.5,3.8,8.1,8.3,8.1s8.3-3.6,8.3-8.1s-3.8-8.1-8.3-8.1
	S699.1,168.4,699.1,172.9z M649.1,180h41.2v-12.5h-26.9V152h22.3v-11.9h-22.3v-12.8h25.9v-12.5h-40.2V180z M599.1,180h42.8v-12.5
	h-28.5v-52.7h-14.3V180z M555.9,167.8v-16.1h8.5c7.6,0,11.6,2.6,11.6,8.3c0,2.9-1,5.3-4,6.6c-2.2,0.9-5.7,1.3-10.8,1.3H555.9z
	 M555.9,141.9v-14.8h4.4c3.8,0,7.7,0.3,10.1,1.6c2.4,1.4,3.1,3.6,3.1,5.7c0,5.3-4.1,7.5-10,7.5H555.9z M541.6,180h19.4
	c6.9,0,12.5-0.8,17-2.5c8.3-3.2,12.4-9.1,12.4-17.1s-4.1-13.4-12.4-15.8v-0.2c5.9-2.2,9.8-6.2,9.8-13.2c0-5.4-2.3-9.8-7.4-12.6
	c-4.4-2.4-11-3.7-19.8-3.7h-19V180z M495.6,148.1c2.1-5.5,4.4-12,6.1-16.9h0.2c1.7,4.9,4,11.4,5.9,16.6l2.7,7.3H493L495.6,148.1z
	 M468.6,180h14.7l5.3-13.7h26.3l5.2,13.7h15.3l-26.5-65.2h-13.9L468.6,180z M410.6,180h17.6c13.7,0,23-2.6,29.7-8
	c6.9-5.7,10.8-14.4,10.8-24.7c0-11.2-4.5-20.3-12.5-25.9c-6.8-4.7-15.8-6.6-27.4-6.6h-18.3V180z M424.9,167.5v-40.1h3.9
	c7.3,0,13.5,0.7,18.1,4c4.9,3.4,7.6,9.2,7.6,16c0,6.5-2.4,11.7-6.3,15c-4,3.5-10,5.1-19.3,5.1H424.9z M366.1,143.6v-16.2h5.5
	c5,0,8.5,0.5,10.7,1.7c2.6,1.4,3.7,3.3,3.7,6.4c0,3.2-1.3,5.3-3.7,6.6c-2.2,1.1-5.1,1.5-9,1.5H366.1z M351.8,180h14.3v-25.7h6.4
	L389,180h16.5l-18.4-27.5c8.6-2.8,13.2-9.6,13.2-18c0-7.5-3.1-12.3-7.8-15.3c-5.2-3.2-12.5-4.3-20.2-4.3h-20.4V180z M308.8,181
	c19.3,0,34-14.6,34-33.6s-14.7-33.6-34-33.6c-19.4,0-34,14.6-34,33.6S289.4,181,308.8,181z M308.8,168c-11.2,0-19.7-9.1-19.7-20.6
	c0-11.5,8.5-20.6,19.7-20.6s19.7,9.1,19.7,20.6C328.5,158.9,320,168,308.8,168z M226.7,180H241v-26.7h23.2v-11.9H241v-14h27v-12.5
	h-41.3V180z M175.7,180h14.3v-26.7h23.2v-11.9h-23.2v-14h27v-12.5h-41.3V180z M129.8,148.1c2.1-5.5,4.4-12,6.1-16.9h0.2
	c1.7,4.9,4.1,11.4,5.9,16.6l2.7,7.3h-17.6L129.8,148.1z M102.8,180h14.7l5.3-13.7H149l5.2,13.7h15.3l-26.5-65.2h-13.9L102.8,180z
	 M805.5,58.9c0,4.5,3.8,8.1,8.3,8.1s8.3-3.6,8.3-8.1s-3.8-8.1-8.3-8.1S805.5,54.4,805.5,58.9z M753.3,62.2
	c6.1,3.1,14.1,4.8,20.6,4.8c14,0,23.7-7.7,23.7-20.3c0-11.5-7.9-16.1-17.7-19.4c-7.8-2.6-13.9-3.1-13.9-8.8c0-4.3,3.5-6.1,8.4-6.1
	c5,0,13,2,20,6.3V4.5c-5.7-3.1-13.5-4.7-19.9-4.7c-13.7,0-22.9,7.6-22.9,19.7c0,11.3,8.1,15.8,17.1,18.7c8.4,2.7,14.5,3.2,14.5,9.3
	c0,4.9-3.9,6.9-9.1,6.9c-5.1,0-13.9-2.1-20.8-6.7V62.2z M742.9,0.9h-13.8v33.5c0,6.8-0.8,11.3-2.8,14.4c-2.2,3.3-5.9,5.4-11.5,5.4
	c-6.1,0-9.9-2.5-11.9-5.7c-1.9-3.1-2.5-7.3-2.5-14.2V0.9h-14.3v33.9c0,9.3,1.3,16.4,4.9,21.6c4.6,6.8,13,10.6,23.5,10.6
	s18.8-3.9,23.4-10.4c3.7-5.2,5-12.3,5-22.1V0.9z M643.7,67c19.3,0,34-14.6,34-33.6S663-0.1,643.7-0.1c-19.4,0-34,14.6-34,33.6
	S624.3,67,643.7,67z M643.7,54c-11.2,0-19.7-9.1-19.7-20.6c0-11.5,8.5-20.6,19.7-20.6s19.7,9.1,19.7,20.6
	C663.4,44.9,655,54,643.7,54z M586.4,66h14.3V0.9h-14.3V66z M576.8,48.1c-5.4,3.7-11.7,6-18.5,6c-13.4,0-21.8-9.2-21.8-20.8
	c0-11.8,8.6-20.6,21.2-20.6c6.7,0,13.2,2.4,18,5.7V3.9c-5.1-2.5-11.5-4.1-18.1-4.1c-21,0-35.5,14.8-35.5,33.7
	c0,19,14.5,33.5,35.5,33.5c6.5,0,13.5-1.3,19.1-4.3V48.1z M498.9,66h14.3V0.9h-14.3V66z M448.9,66h42.8V53.5h-28.5V0.9h-14.3V66z
	 M398.5,66h41.2V53.5h-26.9V38h22.3V26.1h-22.3V13.4h25.9V0.9h-40.2V66z M331.6,66h17.6c13.7,0,23-2.6,29.7-8
	c6.9-5.7,10.8-14.4,10.8-24.7c0-11.2-4.5-20.3-12.5-25.9c-6.8-4.7-15.8-6.6-27.4-6.6h-18.3V66z M345.9,53.5V13.4h3.9
	c7.3,0,13.5,0.7,18.1,4c4.9,3.4,7.6,9.2,7.6,16c0,6.5-2.4,11.7-6.3,15c-4,3.5-10,5.1-19.3,5.1H345.9z M282.3,58.9
	c0,4.5,3.8,8.1,8.3,8.1s8.3-3.6,8.3-8.1s-3.8-8.1-8.3-8.1S282.3,54.4,282.3,58.9z M214,66h14.3V38.6h28.2V66h14.3V0.9h-14.3v25.2
	h-28.2V0.9H214V66z M161.4,62.2c6.1,3.1,14.1,4.8,20.6,4.8c14,0,23.7-7.7,23.7-20.3c0-11.5-7.9-16.1-17.7-19.4
	c-7.8-2.6-13.9-3.1-13.9-8.8c0-4.3,3.5-6.1,8.4-6.1c5,0,13.1,2,20,6.3V4.5c-5.7-3.1-13.5-4.7-19.9-4.7c-13.7,0-22.9,7.6-22.9,19.7
	c0,11.3,8.1,15.8,17.1,18.7c8.4,2.7,14.5,3.2,14.5,9.3c0,4.9-3.9,6.9-9.1,6.9c-5.1,0-13.9-2.1-20.8-6.7V62.2z M111.7,66h41.2V53.5
	H126V38h22.3V26.1H126V13.4h25.9V0.9h-40.2V66z M67.2,29.6V13.4h5.5c5,0,8.5,0.5,10.7,1.7c2.6,1.3,3.7,3.3,3.7,6.4
	c0,3.1-1.3,5.3-3.7,6.6c-2.2,1.1-5.1,1.5-9,1.5H67.2z M52.9,66h14.3V40.3h6.4L90.1,66h16.5L88.2,38.5c8.6-2.8,13.2-9.6,13.2-18
	c0-7.5-3.1-12.3-7.8-15.3c-5.2-3.2-12.5-4.3-20.2-4.3H52.9V66z M2,66h14.3V39.3h23.2V27.4H16.3v-14h27V0.9H2V66z"/>
</svg>
